PathFileType	4	(X/Y/Z)	/Users/niels/Desktop/University/Third Semester/Perception and Action/Exam/Gymnastics Motion Tracking/Code for Gym Tracking/Analyzed Data/Webcam_Backflip/id4_5_baseline_Sports2D/id4_5_baseline_Sports2D_px_person00.trc
DataRate	CameraRate	NumFrames	NumMarkers	Units	OrigDataRate	OrigDataStartFrame	OrigNumFrames
29.8125	29.8125	12	22	m	29.8125	60	160
Frame#	Time	Hip			RHip			RKnee			RAnkle			RBigToe			RSmallToe			RHeel			LHip			LKnee			LAnkle			LBigToe			LSmallToe			LHeel			Neck			Head			Nose			RShoulder			RElbow			RWrist			LShoulder			LElbow			LWrist		
		X1	Y1	Z1	X2	Y2	Z2	X3	Y3	Z3	X4	Y4	Z4	X5	Y5	Z5	X6	Y6	Z6	X7	Y7	Z7	X8	Y8	Z8	X9	Y9	Z9	X10	Y10	Z10	X11	Y11	Z11	X12	Y12	Z12	X13	Y13	Z13	X14	Y14	Z14	X15	Y15	Z15	X16	Y16	Z16	X17	Y17	Z17	X18	Y18	Z18	X19	Y19	Z19	X20	Y20	Z20	X21	Y21	Z21	X22	Y22	Z22
60	2.012578616352201	0.8266348474526785	-0.37486517021666926	0.0	0.8227241681366836	-0.3749770455329166	0.0	0.9014033195778007	-0.4525632774737967	0.0	0.8876859516996632	-0.5566158502950845	0.0	0.9285038234383669	-0.5818192691289359	0.0	0.9173590399101123	-0.5859451272689772	0.0	0.8803202184484004	-0.5743175277073908	0.0	0.828040518621121	-0.37477721656939894	0.0	0.8322361109662532	-0.49110469585994654	0.0	0.8155413136636397	-0.5943141076041915	0.0	0.845331900280108	-0.6369349998031422	0.0	0.8384879122982206	-0.6277059541153367	0.0	0.8079371049278741	-0.6027743723012802	0.0	0.8495510894937036	-0.23129706111974851	0.0	0.8806132909861859	-0.16957272393709164	0.0	0.8784376626551843	-0.20364364735360066	0.0	0.8329366438304457	-0.23940392546764488	0.0	0.8456938222801648	-0.17068266794926742	0.0	0.8625247614933391	-0.11366235398774044	0.0	0.8634321056581715	-0.2384307875993502	0.0	0.9049587739181096	-0.20340767445044597	0.0	0.9449334865727573	-0.15650348447983578	0.0
61	2.0461215932914043	0.8266637285139873	-0.38423046571461944	0.0	0.8238545006046268	-0.38440859431557156	0.0	0.9034334028138674	-0.4610270844098742	0.0	0.8851733135986559	-0.5629632408939867	0.0	0.9229842731077424	-0.5906174819104407	0.0	0.9124847085092148	-0.5939585764307581	0.0	0.8778079908537115	-0.5810137444484094	0.0	0.8269151231108851	-0.38435411218595894	0.0	0.8302917858884253	-0.500475075183897	0.0	0.8128423255316429	-0.6034104502558547	0.0	0.8431043354672302	-0.6464429656610704	0.0	0.8358862988146057	-0.63728633952456	0.0	0.8046610804249726	-0.6117940356430831	0.0	0.8476767455645676	-0.2396733160205239	0.0	0.8752900619517496	-0.17759070872634403	0.0	0.8747733042867833	-0.21226351623398615	0.0	0.8322428182478833	-0.24774729888969282	0.0	0.8439681948750266	-0.18070329944238428	0.0	0.8602396572581572	-0.12272723247052036	0.0	0.8602751892050788	-0.24629859359887565	0.0	0.9007154312742532	-0.21005313219775773	0.0	0.9399814703782622	-0.16048875646758173	0.0
62	2.079664570230608	0.8270105613051446	-0.3973303090407095	0.0	0.8252553170768836	-0.39756367513537444	0.0	0.9043996818948962	-0.47436840870466424	0.0	0.8816830671379042	-0.5744470491122858	0.0	0.9156926949679295	-0.6048215985259501	0.0	0.9061345380853805	-0.6073343338379451	0.0	0.874125326001053	-0.5926666140768071	0.0	0.8263066018558882	-0.3976136697673535	0.0	0.828975427495902	-0.51306934790658	0.0	0.8109660030579735	-0.6157274168929419	0.0	0.8411913265807777	-0.6581226978375609	0.0	0.8335968426114115	-0.6492852671613583	0.0	0.8024801198082505	-0.62452366017522	0.0	0.845382088179494	-0.25230636514950916	0.0	0.8693594404311681	-0.18933407685642523	0.0	0.8707902167043271	-0.22472208926976872	0.0	0.8315628760624546	-0.25986637858290124	0.0	0.842634103087737	-0.19445169737989382	0.0	0.8586493255189698	-0.13569607897612712	0.0	0.8560990449754484	-0.25830246050328165	0.0	0.8959493090376613	-0.22021004473949948	0.0	0.9342815687950696	-0.16807434693787615	0.0
63	2.113207547169811	0.8276798625737447	-0.41441082983906197	0.0	0.8269074234733842	-0.41463229716613126	0.0	0.9041096787585452	-0.49288929760587474	0.0	0.8770820728507329	-0.591632658811427	0.0	0.9067439165425212	-0.6248052277507953	0.0	0.8984019418004227	-0.6264968122313206	0.0	0.8690683561668151	-0.6098504406787336	0.0	0.8262264782501288	-0.4147349543239982	0.0	0.8284802426263881	-0.5291875916094586	0.0	0.8101457653406499	-0.6314370503745803	0.0	0.839578695801838	-0.6721432101710245	0.0	0.8317363943838947	-0.6638205458114316	0.0	0.8017808383196279	-0.6410935536821704	0.0	0.8427602641589876	-0.2693862949096668	0.0	0.8631634132003383	-0.2048401709405317	0.0	0.8668760850614049	-0.24106168188104438	0.0	0.8308816650680104	-0.2761053301485502	0.0	0.8418790961442774	-0.21154611604873078	0.0	0.8578703488176163	-0.1520541956114473	0.0	0.8509924790483236	-0.27468724428870317	0.0	0.8906763455480669	-0.2337891672036361	0.0	0.9274931344640152	-0.17947089964209684	0.0
64	2.1467505241090143	0.8285609057819873	-0.4356533923698102	0.0	0.8287168204785904	-0.4357263860326805	0.0	0.9023898447116183	-0.5166522416382706	0.0	0.8713668251115552	-0.6147246321144988	0.0	0.8964432684319563	-0.6503727059605595	0.0	0.8895260076449332	-0.6513270852464278	0.0	0.8626372440216148	-0.6327874347226982	0.0	0.8265469754097232	-0.43581469914218196	0.0	0.8289594353112383	-0.5490260785273215	0.0	0.8104115018955955	-0.6506502411770778	0.0	0.838172970398198	-0.6888194374238797	0.0	0.8303192511259656	-0.6810951067939035	0.0	0.8025569182613016	-0.6614607665554398	0.0	0.8399957720473785	-0.29093293205579546	0.0	0.8569792588342231	-0.22423328702810896	0.0	0.8632663784227363	-0.2613422837398995	0.0	0.8302106721116641	-0.29669757635554167	0.0	0.8417924790458619	-0.2319250952695067	0.0	0.8578981785806167	-0.17159598783736524	0.0	0.8453035532176372	-0.29551945826946524	0.0	0.8848200599208256	-0.2509075905069456	0.0	0.9192725339728357	-0.19492057045747704	0.0
65	2.180293501048218	0.8294399789763136	-0.46097261615526003	0.0	0.8304331704191197	-0.4607517833476827	0.0	0.8990524968227243	-0.545273012965247	0.0	0.8646876098652906	-0.6433203947745344	0.0	0.8851977800834553	-0.6804431833874239	0.0	0.8797820518924093	-0.6808391033054254	0.0	0.8551187174339325	-0.6611088556283117	0.0	0.8270814848245474	-0.4607313572289258	0.0	0.830491665770215	-0.5724921466430798	0.0	0.8115084006928536	-0.6732500062300807	0.0	0.8368044459683901	-0.7085184319273405	0.0	0.8292323181840657	-0.7013490520513036	0.0	0.8043295872185582	-0.6852792065460964	0.0	0.8373149174345694	-0.31670167197753424	0.0	0.8511597561862433	-0.2476144461325726	0.0	0.860051119723791	-0.285509900449038	0.0	0.8295818334001706	-0.3216077426017285	0.0	0.8423774058224291	-0.25579073960538273	0.0	0.858611932186541	-0.1945397438004931	0.0	0.8395895738245934	-0.3205786158710796	0.0	0.8783386160559453	-0.2717511870343501	0.0	0.9094721974233967	-0.214575602907211	0.0
66	2.213836477987421	0.8300864553545326	-0.48980477626409824	0.0	0.8316588876055896	-0.4892463934135294	0.0	0.8939715968266861	-0.5777799746740673	0.0	0.8572751058548951	-0.6762027022354996	0.0	0.8737041163675314	-0.7132203386913163	0.0	0.8695914488637893	-0.7132987402600882	0.0	0.8469011620014839	-0.6936461539631922	0.0	0.8276794713363738	-0.4889881929752676	0.0	0.8330173010883826	-0.5991409231383784	0.0	0.8129260453693866	-0.6987803412806222	0.0	0.835424220996015	-0.7313672636044029	0.0	0.8284670697473919	-0.724637839114254	0.0	0.8062487705804344	-0.7118082706341687	0.0	0.8349799629624557	-0.3460048709039564	0.0	0.8461952691913421	-0.2747374202453	0.0	0.8573096935714473	-0.3131598783747736	0.0	0.8290441254328048	-0.3503815369198668	0.0	0.8436538040040358	-0.28323815643338884	0.0	0.8598837331466537	-0.22115898465795894	0.0	0.834478131561205	-0.34924406412747344	0.0	0.8713589241785663	-0.29619670384912883	0.0	0.8983054723601039	-0.2382795606570605	0.0
67	2.2473794549266244	0.8303400812146953	-0.521030783880483	0.0	0.8320383562636117	-0.5202390308102949	0.0	0.887286934487285	-0.6126148645025439	0.0	0.8493128792180045	-0.711429141094326	0.0	0.8629821101076769	-0.7465839387788284	0.0	0.8596204800002838	-0.7466413322717259	0.0	0.838187970127377	-0.7284361568974087	0.0	0.8282191402220462	-0.5195943620713416	0.0	0.8362923631477579	-0.6281018339795732	0.0	0.8140555581204576	-0.7263715296879055	0.0	0.8342615982435112	-0.7567616011294782	0.0	0.828190767871882	-0.7504079847012783	0.0	0.8073412816104306	-0.7398945355541678	0.0	0.8332190806758738	-0.37761410788543254	0.0	0.8426573902480953	-0.30474184681036615	0.0	0.8552113412737379	-0.34340668013131165	0.0	0.8286047205431505	-0.3820446777151005	0.0	0.8455913533547014	-0.3138644873699584	0.0	0.8615483640631576	-0.25121816363758315	0.0	0.8304680767249478	-0.38042535567775687	0.0	0.8641800284300912	-0.3236304194395414	0.0	0.8863956715209139	-0.26542281495245784	0.0
68	2.280922431865828	0.8301200818909039	-0.5529917135911658	0.0	0.8314618872061116	-0.5521817392307496	0.0	0.8796009313551749	-0.6477420103270157	0.0	0.840944436245509	-0.7466136403921275	0.0	0.853911342817649	-0.7783309782778364	0.0	0.8505810405138461	-0.7787192301578626	0.0	0.8290513791161978	-0.7629531997872626	0.0	0.8285174771494705	-0.5510190604712479	0.0	0.8399199462958433	-0.6579711932154972	0.0	0.814454054357805	-0.754661742048188	0.0	0.833688468257463	-0.7831051341891225	0.0	0.8284768555010373	-0.7772286851864301	0.0	0.8069028178517353	-0.7680066765651384	0.0	0.8320883033183589	-0.40982349961903014	0.0	0.8409288278541731	-0.3361056368946382	0.0	0.8539193613143387	-0.37481968112196035	0.0	0.8281517097082529	-0.41503492959351257	0.0	0.8478926595824122	-0.34654653144952424	0.0	0.8632623203088582	-0.28358134943239555	0.0	0.8277771143322173	-0.41256771698805816	0.0	0.8573668165188012	-0.3529896083494888	0.0	0.8749257326242988	-0.2948066377780747	0.0
69	2.314465408805031	0.8293972663058414	-0.5835361036654142	0.0	0.8300424382683821	-0.5829619605128522	0.0	0.8719414359349926	-0.6808263805122539	0.0	0.832521159031693	-0.7791734783097103	0.0	0.8468944183472024	-0.8063588042881084	0.0	0.8430412301490858	-0.8073983725118917	0.0	0.8198424667290887	-0.794445192191675	0.0	0.8283465583503011	-0.5812048251458511	0.0	0.8434237123070111	-0.6868164636098308	0.0	0.8139997786582575	-0.7817538649707426	0.0	0.8338964482826773	-0.8080796435216647	0.0	0.8290673121686812	-0.8029166079739575	0.0	0.8048153601203338	-0.7942722521295836	0.0	0.8314346134186597	-0.4405056079463418	0.0	0.8408897297396732	-0.3667300482842233	0.0	0.853387145596272	-0.4053479566957268	0.0	0.8275046761286065	-0.4471466874307521	0.0	0.8500723116636937	-0.3793567620215116	0.0	0.8647230252375884	-0.3162080976256359	0.0	0.826319288176948	-0.4436391557994314	0.0	0.8518664230826067	-0.3826507511060255	0.0	0.8656651487989382	-0.32448903282463515	0.0
70	2.3480083857442344	0.8281755899712594	-0.6102394576005123	0.0	0.8279346579375095	-0.610077779251118	0.0	0.86542607938709	-0.7094290917862414	0.0	0.8247566663731434	-0.8065673164702045	0.0	0.8420508671125804	-0.8288234575831962	0.0	0.83745680603797	-0.8306609440818535	0.0	0.8113434434907971	-0.820336555753944	0.0	0.827576095168542	-0.6077460428618786	0.0	0.8464030684933195	-0.7123427150301808	0.0	0.8128249639555838	-0.8053266376349668	0.0	0.834785157664462	-0.8292170062031369	0.0	0.8295553336169199	-0.8249288532922608	0.0	0.8015547934791434	-0.8165667239990859	0.0	0.831001361109102	-0.46722988260376686	0.0	0.8420125776148094	-0.39415921832597334	0.0	0.8533139927305319	-0.43247345378235086	0.0	0.8265568122103545	-0.47570349531150685	0.0	0.8518875985581862	-0.4097135071866634	0.0	0.8661598651762684	-0.346526789015041	0.0	0.8257654325136233	-0.47122917898530486	0.0	0.8486480844661471	-0.41032529075332247	0.0	0.8603060480735415	-0.35196524162745696	0.0
71	2.381551362683438	0.826514531728621	-0.6308547396712889	0.0	0.8252949136668442	-0.6310952004090895	0.0	0.8608712161275549	-0.7312219757962055	0.0	0.8184665457450706	-0.8265286997462504	0.0	0.8393148026037739	-0.8442853636070156	0.0	0.8340144299544152	-0.8467930540365136	0.0	0.8044208549657403	-0.8385412072472741	0.0	0.8262630710605184	-0.628329247408122	0.0	0.8487976139274389	-0.732167859490778	0.0	0.811281261357124	-0.8229612689633464	0.0	0.8360525705780387	-0.8444232686877898	0.0	0.8297283217462738	-0.8409314971207086	0.0	0.7980020767084414	-0.8327443952813417	0.0	0.8305578256494552	-0.4876950533545244	0.0	0.843777736848204	-0.4159629607943661	0.0	0.8533381864750185	-0.4537232990624279	0.0	0.8253467198754699	-0.49808733677983186	0.0	0.8535717922161902	-0.43484870191865765	0.0	0.8683360737646216	-0.3719779453666968	0.0	0.8256332344265102	-0.49294241961147567	0.0	0.8480525087208255	-0.43341015059845617	0.0	0.859509383916089	-0.37478431517136485	0.0
